<svg width="276" height="200" viewBox="0 0 276 200" fill="none" xmlns="http://www.w3.org/2000/svg">
<path d="M112 3.8C92.8 10.8 60.3 33.7 39.1 55.2C15.5 79.2 0 106.8 0 125C0 129.4 0.3 130.1 1.7 129.8C3.1 129.6 3.7 128 4.2 123.5C6.7 103.9 19.8 81.5 42 59C55 45.9 64.5 38 84 24.6C99.2 14 107.6 9.6 117 6.8C127.5 3.8 131.3 6 129.6 14.1C128.5 19.9 94.7 102.3 66.3 168.7C59.5 184.8 54.1 198.4 54.5 199C56.5 202.2 58.9 197.7 71.4 168.5C102.3 96.2 131.1 25.6 133.5 16.4C137.2 2.3 129.1 -2.4 112 3.8Z" fill="white"/>
<path d="M228.1 56.6C223.6 61.7 212.9 82.3 206 99C201.8 109 197.2 115.7 192.7 118.2C190.2 119.5 187.5 117 185.7 111.5L184.2 107.2L188.6 103.9C191 102.1 193 100.1 193 99.4C193 96.7 190.7 96.9 187 99.9C183.1 103 183.1 102.9 188.6 95.8C195.2 87 201.3 75.2 200.8 71.9C200.6 70.1 199.9 69.5 198 69.5C194.5 69.5 189.8 76.9 182 94.5C173.6 113.7 171.9 116.4 166.7 118.9C161.5 121.4 159.7 121.5 157.6 119.4C155.6 117.4 156.2 116.4 159.8 115.7C166 114.4 170.8 107.3 166.4 105.6C162.8 104.2 160.5 105.3 154.6 111C148.5 116.8 140 121.7 138 120.5C137.4 120.2 137 118.3 137 116.3C137 113.4 137.8 112.1 141.8 108.5C144.4 106.1 148.8 101.2 151.5 97.7C155.5 92.5 157.1 91.1 159.3 91.1C162.3 91 163.1 89 160.1 89C158.2 89 158.2 88.8 160.6 83.5C161.9 80.4 163 76.4 163 74.5C163 71.3 162.8 71 160 71C156.5 71 151.5 75.6 146.4 83.6L142.9 89H137.5H132.1L132.7 84C133.2 79.4 133.1 79 130.8 77.9C125.1 75.3 119.4 82.5 106.1 108.8C92.1 136.9 88.8 145.9 91.4 149.5C95.7 155.5 112 138.1 112 127.6C112 125.6 112.1 124 112.3 124C115.1 124 125.4 121.3 128.3 119.8C130.4 118.8 132.3 118 132.4 118.2C132.5 118.4 133.2 119.8 133.8 121.4C135 124.1 135.3 124.2 140.4 123.8C143.8 123.5 146.9 122.5 148.9 121C151.6 119.1 152.4 119 153.1 120.1C153.6 120.9 154 121.8 154 122.2C154 122.6 155.7 123.4 157.8 124C160.7 124.9 162.4 124.9 165.8 123.7C168.1 122.9 170 122.6 170 123.1C170 123.6 170.8 124 171.8 124C173.2 124 174.4 122.1 176.5 116.9C178.1 113.1 179.7 109.7 180.1 109.4C180.5 109.2 181.6 111.2 182.5 114C185.1 121.8 188.8 123.9 195.4 121.4C196.5 121 197 121.3 197 122.4C197 125.4 199.4 124 205.2 117.7C209.9 112.8 210.8 112.2 209.5 114.7C205.7 122.7 209.9 126.4 218.2 122.2C221.6 120.4 221.8 120.4 222.9 122.2C224.4 124.6 229.1 124.5 232.2 122C234.7 120.1 234.8 120.1 236.5 122C239 124.7 244.6 124.6 250.2 121.6L254.7 119.2L255.7 122.1C256.7 124.7 257.3 125 261.5 125C264 125 267.1 124.5 268.3 123.9C272.2 121.9 276 117.7 276 115.3C276 112.3 273.7 112.3 272.1 115.3C270.4 118.4 265.9 121 262.1 121C258.5 121 258.2 119.8 261 116.3C262.1 114.9 263 112.8 263 111.7C263 110.6 263.8 108.8 264.7 107.8C266 106.3 266.2 105.5 265.4 104.2C262.7 99.9 256 102.9 256 108.3C256 110.6 255.2 112.4 253.3 114.2C247.6 119.5 239.9 121.7 238.6 118.4C238.3 117.5 238.9 114.8 240 112.3C242.3 107.1 241.5 104.4 237.3 103.4C233.7 102.5 228.8 105.3 224.6 110.7C222.8 113.1 220.2 115.9 218.9 116.9C216.3 118.8 212 120.5 212 119.5C212 119.2 213.6 115.8 215.5 111.9C220.6 101.8 218.8 100.2 210 107.1C204.5 111.5 204.5 110 210.2 103.6C222.1 90.2 239 62.9 239 57.1C239 50.5 233.7 50.3 228.1 56.6ZM235 57.5C235 60.2 230.1 69 221.8 81.2C217.4 87.7 213.7 93 213.5 93C212.1 93 223.1 71.2 228.7 62.7C233.1 56.1 235 54.5 235 57.5ZM156.3 82.7C153.9 87.5 153 88.6 150.6 88.8L147.7 89.2L149.5 86.3C153 80.8 158.4 74.8 158.8 75.9C159 76.5 157.9 79.6 156.3 82.7ZM128.5 85.4C128 87.6 127.2 89 126.3 89C125.4 89 125.1 89.6 125.5 90.9C126.2 93.3 119.8 102.9 113 109.5L107.8 114.5L112 106C118.6 92.9 127.3 80 128.7 81.4C129 81.6 128.8 83.4 128.5 85.4ZM139.4 96.2C137.9 99.1 136 103.7 135 106.5C133.9 109.6 132.1 112.4 129.9 114.2C126.4 117 116.9 120 111.4 120C108.2 120 108.2 120 116 112.2C120.4 107.7 125.2 101.7 127.4 97.7L131.2 91H136.6H142L139.4 96.2ZM151 91.7C151 92.2 148.5 95.2 145.5 98.5L140 104.5L143.2 97.7C145.8 92.3 146.9 91 148.7 91C150 91 151 91.3 151 91.7ZM237 108.4C237 110.2 230.4 118.7 228 120C226.3 120.9 226 120.7 226 118.9C226 114.6 232.2 107 235.7 107C236.4 107 237 107.6 237 108.4ZM107.9 124.6C110.4 126.8 104.4 138.7 98.2 143.8L94.1 147.2L95.2 143.3C95.7 141.2 97.8 135.8 99.7 131.2C102.9 123.9 103.5 123 105.4 123.6C106.5 124 107.7 124.4 107.9 124.6Z" fill="white"/>
</svg>
