<svg width="276" height="199" viewBox="0 0 276 199" fill="none" xmlns="http://www.w3.org/2000/svg">
<path d="M112 2.68051C92.8 9.68052 60.3 32.5805 39.1 54.0805C15.5 78.0805 0 105.681 0 123.881C0 128.281 0.3 128.981 1.7 128.681C3.1 128.481 3.7 126.881 4.2 122.381C6.7 102.781 19.8 80.3805 42 57.8805C55 44.7805 64.5 36.8805 84 23.4805C99.2 12.8805 107.6 8.48051 117 5.68051C127.5 2.68051 131.3 4.88052 129.6 12.9805C128.5 18.7805 94.7 101.181 66.3 167.581C59.5 183.681 54.1 197.281 54.5 197.881C56.5 201.081 58.9 196.581 71.4 167.381C102.3 95.0805 131.1 24.4805 133.5 15.2805C137.2 1.18051 129.1 -3.51948 112 2.68051Z" fill="black"/>
<path d="M228.1 55.4802C223.6 60.5802 212.9 81.1802 206 97.8802C201.8 107.88 197.2 114.58 192.7 117.08C190.2 118.38 187.5 115.88 185.7 110.38L184.2 106.08L188.6 102.78C191 100.98 193 98.9802 193 98.2802C193 95.5802 190.7 95.7802 187 98.7802C183.1 101.88 183.1 101.78 188.6 94.6802C195.2 85.8802 201.3 74.0802 200.8 70.7802C200.6 68.9802 199.9 68.3802 198 68.3802C194.5 68.3802 189.8 75.7802 182 93.3802C173.6 112.58 171.9 115.28 166.7 117.78C161.5 120.28 159.7 120.38 157.6 118.28C155.6 116.28 156.2 115.28 159.8 114.58C166 113.28 170.8 106.18 166.4 104.48C162.8 103.08 160.5 104.18 154.6 109.88C148.5 115.68 140 120.58 138 119.38C137.4 119.08 137 117.18 137 115.18C137 112.28 137.8 110.98 141.8 107.38C144.4 104.98 148.8 100.08 151.5 96.5802C155.5 91.3802 157.1 89.9802 159.3 89.9802C162.3 89.8802 163.1 87.8802 160.1 87.8802C158.2 87.8802 158.2 87.6802 160.6 82.3802C161.9 79.2802 163 75.2802 163 73.3802C163 70.1802 162.8 69.8802 160 69.8802C156.5 69.8802 151.5 74.4802 146.4 82.4802L142.9 87.8802H137.5H132.1L132.7 82.8802C133.2 78.2802 133.1 77.8802 130.8 76.7802C125.1 74.1802 119.4 81.3802 106.1 107.68C92.1 135.78 88.8 144.78 91.4 148.38C95.7 154.38 112 136.98 112 126.48C112 124.48 112.1 122.88 112.3 122.88C115.1 122.88 125.4 120.18 128.3 118.68C130.4 117.68 132.3 116.88 132.4 117.08C132.5 117.28 133.2 118.68 133.8 120.28C135 122.98 135.3 123.08 140.4 122.68C143.8 122.38 146.9 121.38 148.9 119.88C151.6 117.98 152.4 117.88 153.1 118.98C153.6 119.78 154 120.68 154 121.08C154 121.48 155.7 122.28 157.8 122.88C160.7 123.78 162.4 123.78 165.8 122.58C168.1 121.78 170 121.48 170 121.98C170 122.48 170.8 122.88 171.8 122.88C173.2 122.88 174.4 120.98 176.5 115.78C178.1 111.98 179.7 108.58 180.1 108.28C180.5 108.08 181.6 110.08 182.5 112.88C185.1 120.68 188.8 122.78 195.4 120.28C196.5 119.88 197 120.18 197 121.28C197 124.28 199.4 122.88 205.2 116.58C209.9 111.68 210.8 111.08 209.5 113.58C205.7 121.58 209.9 125.28 218.2 121.08C221.6 119.28 221.8 119.28 222.9 121.08C224.4 123.48 229.1 123.38 232.2 120.88C234.7 118.98 234.8 118.98 236.5 120.88C239 123.58 244.6 123.48 250.2 120.48L254.7 118.08L255.7 120.98C256.7 123.58 257.3 123.88 261.5 123.88C264 123.88 267.1 123.38 268.3 122.78C272.2 120.78 276 116.58 276 114.18C276 111.18 273.7 111.18 272.1 114.18C270.4 117.28 265.9 119.88 262.1 119.88C258.5 119.88 258.2 118.68 261 115.18C262.1 113.78 263 111.68 263 110.58C263 109.48 263.8 107.68 264.7 106.68C266 105.18 266.2 104.38 265.4 103.08C262.7 98.7802 256 101.78 256 107.18C256 109.48 255.2 111.28 253.3 113.08C247.6 118.38 239.9 120.58 238.6 117.28C238.3 116.38 238.9 113.68 240 111.18C242.3 105.98 241.5 103.28 237.3 102.28C233.7 101.38 228.8 104.18 224.6 109.58C222.8 111.98 220.2 114.78 218.9 115.78C216.3 117.68 212 119.38 212 118.38C212 118.08 213.6 114.68 215.5 110.78C220.6 100.68 218.8 99.0802 210 105.98C204.5 110.38 204.5 108.88 210.2 102.48C222.1 89.0802 239 61.7802 239 55.9802C239 49.3802 233.7 49.1802 228.1 55.4802ZM235 56.3802C235 59.0802 230.1 67.8802 221.8 80.0802C217.4 86.5802 213.7 91.8802 213.5 91.8802C212.1 91.8802 223.1 70.0802 228.7 61.5802C233.1 54.9802 235 53.3802 235 56.3802ZM156.3 81.5802C153.9 86.3802 153 87.4802 150.6 87.6802L147.7 88.0802L149.5 85.1802C153 79.6802 158.4 73.6802 158.8 74.7802C159 75.3802 157.9 78.4802 156.3 81.5802ZM128.5 84.2802C128 86.4802 127.2 87.8802 126.3 87.8802C125.4 87.8802 125.1 88.4802 125.5 89.7802C126.2 92.1802 119.8 101.78 113 108.38L107.8 113.38L112 104.88C118.6 91.7802 127.3 78.8802 128.7 80.2802C129 80.4802 128.8 82.2802 128.5 84.2802ZM139.4 95.0802C137.9 97.9802 136 102.58 135 105.38C133.9 108.48 132.1 111.28 129.9 113.08C126.4 115.88 116.9 118.88 111.4 118.88C108.2 118.88 108.2 118.88 116 111.08C120.4 106.58 125.2 100.58 127.4 96.5802L131.2 89.8802H136.6H142L139.4 95.0802ZM151 90.5802C151 91.0802 148.5 94.0802 145.5 97.3802L140 103.38L143.2 96.5802C145.8 91.1802 146.9 89.8802 148.7 89.8802C150 89.8802 151 90.1802 151 90.5802ZM237 107.28C237 109.08 230.4 117.58 228 118.88C226.3 119.78 226 119.58 226 117.78C226 113.48 232.2 105.88 235.7 105.88C236.4 105.88 237 106.48 237 107.28ZM107.9 123.48C110.4 125.68 104.4 137.58 98.2 142.68L94.1 146.08L95.2 142.18C95.7 140.08 97.8 134.68 99.7 130.08C102.9 122.78 103.5 121.88 105.4 122.48C106.5 122.88 107.7 123.28 107.9 123.48Z" fill="black"/>
</svg>
