<svg width="300" height="300" viewBox="0 0 300 300" fill="none" xmlns="http://www.w3.org/2000/svg">
<circle cx="150" cy="150" r="150" fill="black"/>
<path d="M124 53.7997C104.8 60.7997 72.3 83.6997 51.1 105.2C27.5 129.2 12 156.8 12 175C12 179.4 12.3 180.1 13.7 179.8C15.1 179.6 15.7 178 16.2 173.5C18.7 153.9 31.8 131.5 54 109C67 95.8997 76.5 87.9997 96 74.5997C111.2 63.9997 119.6 59.5997 129 56.7997C139.5 53.7997 143.3 55.9997 141.6 64.0997C140.5 69.8997 106.7 152.3 78.3 218.7C71.5 234.8 66.1 248.4 66.5 249C68.5 252.2 70.9 247.7 83.4 218.5C114.3 146.2 143.1 75.5997 145.5 66.3997C149.2 52.2997 141.1 47.5997 124 53.7997Z" fill="white"/>
<path d="M240.1 106.6C235.6 111.7 224.9 132.3 218 149C213.8 159 209.2 165.7 204.7 168.2C202.2 169.5 199.5 167 197.7 161.5L196.2 157.2L200.6 153.9C203 152.1 205 150.1 205 149.4C205 146.7 202.7 146.9 199 149.9C195.1 153 195.1 152.9 200.6 145.8C207.2 137 213.3 125.2 212.8 121.9C212.6 120.1 211.9 119.5 210 119.5C206.5 119.5 201.8 126.9 194 144.5C185.6 163.7 183.9 166.4 178.7 168.9C173.5 171.4 171.7 171.5 169.6 169.4C167.6 167.4 168.2 166.4 171.8 165.7C178 164.4 182.8 157.3 178.4 155.6C174.8 154.2 172.5 155.3 166.6 161C160.5 166.8 152 171.7 150 170.5C149.4 170.2 149 168.3 149 166.3C149 163.4 149.8 162.1 153.8 158.5C156.4 156.1 160.8 151.2 163.5 147.7C167.5 142.5 169.1 141.1 171.3 141.1C174.3 141 175.1 139 172.1 139C170.2 139 170.2 138.8 172.6 133.5C173.9 130.4 175 126.4 175 124.5C175 121.3 174.8 121 172 121C168.5 121 163.5 125.6 158.4 133.6L154.9 139H149.5H144.1L144.7 134C145.2 129.4 145.1 129 142.8 127.9C137.1 125.3 131.4 132.5 118.1 158.8C104.1 186.9 100.8 195.9 103.4 199.5C107.7 205.5 124 188.1 124 177.6C124 175.6 124.1 174 124.3 174C127.1 174 137.4 171.3 140.3 169.8C142.4 168.8 144.3 168 144.4 168.2C144.5 168.4 145.2 169.8 145.8 171.4C147 174.1 147.3 174.2 152.4 173.8C155.8 173.5 158.9 172.5 160.9 171C163.6 169.1 164.4 169 165.1 170.1C165.6 170.9 166 171.8 166 172.2C166 172.6 167.7 173.4 169.8 174C172.7 174.9 174.4 174.9 177.8 173.7C180.1 172.9 182 172.6 182 173.1C182 173.6 182.8 174 183.8 174C185.2 174 186.4 172.1 188.5 166.9C190.1 163.1 191.7 159.7 192.1 159.4C192.5 159.2 193.6 161.2 194.5 164C197.1 171.8 200.8 173.9 207.4 171.4C208.5 171 209 171.3 209 172.4C209 175.4 211.4 174 217.2 167.7C221.9 162.8 222.8 162.2 221.5 164.7C217.7 172.7 221.9 176.4 230.2 172.2C233.6 170.4 233.8 170.4 234.9 172.2C236.4 174.6 241.1 174.5 244.2 172C246.7 170.1 246.8 170.1 248.5 172C251 174.7 256.6 174.6 262.2 171.6L266.7 169.2L267.7 172.1C268.7 174.7 269.3 175 273.5 175C276 175 279.1 174.5 280.3 173.9C284.2 171.9 288 167.7 288 165.3C288 162.3 285.7 162.3 284.1 165.3C282.4 168.4 277.9 171 274.1 171C270.5 171 270.2 169.8 273 166.3C274.1 164.9 275 162.8 275 161.7C275 160.6 275.8 158.8 276.7 157.8C278 156.3 278.2 155.5 277.4 154.2C274.7 149.9 268 152.9 268 158.3C268 160.6 267.2 162.4 265.3 164.2C259.6 169.5 251.9 171.7 250.6 168.4C250.3 167.5 250.9 164.8 252 162.3C254.3 157.1 253.5 154.4 249.3 153.4C245.7 152.5 240.8 155.3 236.6 160.7C234.8 163.1 232.2 165.9 230.9 166.9C228.3 168.8 224 170.5 224 169.5C224 169.2 225.6 165.8 227.5 161.9C232.6 151.8 230.8 150.2 222 157.1C216.5 161.5 216.5 160 222.2 153.6C234.1 140.2 251 112.9 251 107.1C251 100.5 245.7 100.3 240.1 106.6ZM247 107.5C247 110.2 242.1 119 233.8 131.2C229.4 137.7 225.7 143 225.5 143C224.1 143 235.1 121.2 240.7 112.7C245.1 106.1 247 104.5 247 107.5ZM168.3 132.7C165.9 137.5 165 138.6 162.6 138.8L159.7 139.2L161.5 136.3C165 130.8 170.4 124.8 170.8 125.9C171 126.5 169.9 129.6 168.3 132.7ZM140.5 135.4C140 137.6 139.2 139 138.3 139C137.4 139 137.1 139.6 137.5 140.9C138.2 143.3 131.8 152.9 125 159.5L119.8 164.5L124 156C130.6 142.9 139.3 130 140.7 131.4C141 131.6 140.8 133.4 140.5 135.4ZM151.4 146.2C149.9 149.1 148 153.7 147 156.5C145.9 159.6 144.1 162.4 141.9 164.2C138.4 167 128.9 170 123.4 170C120.2 170 120.2 170 128 162.2C132.4 157.7 137.2 151.7 139.4 147.7L143.2 141H148.6H154L151.4 146.2ZM163 141.7C163 142.2 160.5 145.2 157.5 148.5L152 154.5L155.2 147.7C157.8 142.3 158.9 141 160.7 141C162 141 163 141.3 163 141.7ZM249 158.4C249 160.2 242.4 168.7 240 170C238.3 170.9 238 170.7 238 168.9C238 164.6 244.2 157 247.7 157C248.4 157 249 157.6 249 158.4ZM119.9 174.6C122.4 176.8 116.4 188.7 110.2 193.8L106.1 197.2L107.2 193.3C107.7 191.2 109.8 185.8 111.7 181.2C114.9 173.9 115.5 173 117.4 173.6C118.5 174 119.7 174.4 119.9 174.6Z" fill="white"/>
</svg>
